<?xml version="1.0" encoding="UTF-8" standalone="no"?>
<svg width="32px" height="32px" viewBox="0 0 32 32" version="1.1" xmlns="http://www.w3.org/2000/svg" xmlns:xlink="http://www.w3.org/1999/xlink">
    <!-- Generator: Sketch 3.8.2 (29753) - http://www.bohemiancoding.com/sketch -->
    <title>bot-says</title>
    <desc>Created with Sketch.</desc>
    <defs>
        <path d="M16,32 C24.836556,32 32,24.836556 32,16 C32,7.163444 24.836556,0 16,0 C7.163444,0 0,7.163444 0,16 C0,24.836556 7.163444,32 16,32 Z" id="path-1"></path>
    </defs>
    <g id="Page-1" stroke="none" stroke-width="1" fill="none" fill-rule="evenodd">
        <g id="bot-says">
            <g id="Group-Copy-3" transform="translate(7.000000, 7.000000)" fill="#FFFFFF">
                <ellipse id="Oval-46" cx="9" cy="6" rx="6" ry="6"></ellipse>
                <path d="M17.9989546,23.138589 C15.4149014,24.8360672 12.3227678,25.8235294 9,25.8235294 C5.67723222,25.8235294 2.5850986,24.8360672 0.00104540299,23.138589 C0.00034929854,23.0924759 0,23.0462788 0,23 C0,18.0294373 4.02943725,14 9,14 C13.9705627,14 18,18.0294373 18,23 C18,23.0462788 17.9996507,23.0924759 17.9989546,23.138589 Z" id="Combined-Shape"></path>
            </g>
            <g id="Group-2-Copy-3">
                <g id="Combined-Shape-+-Rectangle-129-Mask">
                    <mask id="mask-2" fill="white">
                        <use xlink:href="#path-1"></use>
                    </mask>
                    <use id="Mask" fill="#929292" xlink:href="#path-1"></use>
                    <rect id="Combined-Shape" fill="#FFFFFF" mask="url(#mask-2)" x="8" y="6" width="16" height="14" rx="4"></rect>
                    <circle id="Oval-58-Copy" fill="#929292" mask="url(#mask-2)" cx="20.5" cy="12.5" r="1.5"></circle>
                    <circle id="Oval-58" fill="#929292" mask="url(#mask-2)" cx="11.5" cy="12.5" r="1.5"></circle>
                    <rect id="Rectangle-129" fill="#FFFFFF" mask="url(#mask-2)" x="6" y="23" width="20" height="9" rx="2"></rect>
                    <g id="Group-3" mask="url(#mask-2)">
                        <g transform="translate(10.000000, 11.000000)"></g>
                    </g>
                </g>
            </g>
            <g id="Group-2" transform="translate(6.000000, 10.000000)" fill="#FFFFFF">
                <path d="M18,0 L19,0 C19.5522847,0 20,0.452925671 20,1.00972326 L20,1.43146879 L20,4.00596511 C20,4.55495542 19.5561352,5 19,5 L18,5 L18,0 Z" id="Rectangle-66"></path>
                <path d="M0,0 L1,0 C1.55228475,0 2,0.452925671 2,1.00972326 L2,1.43146879 L2,4.00596511 C2,4.55495542 1.55613518,5 1,5 L0,5 L0,0 Z" id="Rectangle-66-Copy" transform="translate(1.000000, 2.500000) scale(-1, 1) translate(-1.000000, -2.500000) "></path>
            </g>
        </g>
    </g>
</svg>